<?xml version="1.0" encoding="utf-8"?>
<!-- Generator: Adobe Illustrator 25.4.0, SVG Export Plug-In . SVG Version: 6.00 Build 0)  -->
<svg version="1.1" id="Camada_1" xmlns="http://www.w3.org/2000/svg" xmlns:xlink="http://www.w3.org/1999/xlink" x="0px" y="0px"
	 viewBox="0 0 228.7 91.6" style="enable-background:new 0 0 228.7 91.6;" xml:space="preserve">
<style type="text/css">
	.st0{fill:#F7931E;}
	.st1{fill:#FFFFFF;}
</style>
<g>
	<g>
		<path class="st0" d="M48.7,24.5c0-12.1-9.8-21.8-21.8-21.8c-12.1,0-21.8,9.8-21.8,21.8s9.8,21.8,21.8,21.8
			C39,46.4,48.7,36.6,48.7,24.5"/>
	</g>
	<g>
		<path class="st1" d="M40.2,62.3v4.6H26.9V16h13.3v18.2c2.6-3.1,5.8-5.9,11.4-5.9c9,0,16.7,7.5,16.7,19.5V48
			c0,12.3-7.7,19.7-16.7,19.7C46,67.7,42.6,65.2,40.2,62.3z M55.3,48.1v-0.1c0-5-3.4-8.5-7.7-8.5c-4.3,0-7.7,3.6-7.7,8.5v0.1
			c0,5,3.4,8.6,7.7,8.6C51.9,56.7,55.3,53.2,55.3,48.1z"/>
		<path class="st1" d="M74.1,29.2h13.3v7.6c2.2-5.2,5.7-8.5,11.9-8.2v14h-1.1c-6.9,0-10.8,4-10.8,12.7v11.7H74.1V29.2z"/>
		<path class="st1" d="M100.3,56.1V56c0-7.8,5.9-11.9,14.8-11.9c3.5,0,6.9,0.7,9.1,1.5v-0.6c0-3.9-2.4-6.1-7.5-6.1
			c-4,0-7,0.8-10.4,2.1l-2.7-9.3c4.3-1.7,8.8-2.9,15.3-2.9c6.8,0,11.4,1.6,14.4,4.6c2.9,2.8,4,6.7,4,12v21.7h-13.1V63
			c-2.6,2.9-6.1,4.7-11.1,4.7C105.8,67.7,100.3,63.6,100.3,56.1z M124.3,53.2v-1.7c-1.3-0.6-3.2-1-5.2-1c-3.8,0-6.1,1.9-6.1,4.7v0.1
			c0,2.6,2,4.1,4.7,4.1C121.6,59.4,124.3,57,124.3,53.2z"/>
		<path class="st1" d="M143.6,73.9l4.3-8.8c4,2.2,8.1,3.6,13.2,3.6c6.6,0,9.9-3.3,9.9-9.3v-1.5c-2.7,3.1-6.1,5.7-11.7,5.7
			c-9.3,0-16.7-6.7-16.7-17.5v-0.1c0-10.9,7.6-17.6,16.3-17.6c5.7,0,9,2.3,11.9,5.3v-4.5H184v28.7c0,6.9-1.5,11.7-4.9,15.1
			c-3.4,3.4-8.7,5.3-16.6,5.3C155.2,78.2,149.1,76.7,143.6,73.9z M171,46.1v-0.1c0-4.2-3.2-7.3-7.7-7.3c-4.5,0-7.7,3.1-7.7,7.3v0.1
			c0,4.2,3.2,7.3,7.7,7.3C167.8,53.4,171,50.2,171,46.1z"/>
		<path class="st1" d="M189.3,56.1V56c0-7.8,5.9-11.9,14.8-11.9c3.5,0,6.9,0.7,9.1,1.5v-0.6c0-3.9-2.4-6.1-7.5-6.1
			c-4,0-7,0.8-10.4,2.1l-2.7-9.3c4.3-1.7,8.8-2.9,15.3-2.9c6.8,0,11.4,1.6,14.4,4.6c2.9,2.8,4,6.7,4,12v21.7h-13.1V63
			c-2.6,2.9-6.1,4.7-11.1,4.7C194.8,67.7,189.3,63.6,189.3,56.1z M213.3,53.2v-1.7c-1.3-0.6-3.2-1-5.2-1c-3.8,0-6.1,1.9-6.1,4.7v0.1
			c0,2.6,2,4.1,4.7,4.1C210.5,59.4,213.3,57,213.3,53.2z"/>
	</g>
	<g>
		<path class="st1" d="M32.5,85.2L32.5,85.2l-4.7-6.7v10.2h-1.4V76.1H28l4.6,6.9l4.6-6.9h1.4v12.6h-1.4V78.4L32.5,85.2z"/>
		<path class="st1" d="M42,88.6v-9.3h1.4v9.3H42z M42.1,77.9l1.7-2.6l1.4,0.7l-2,1.9H42.1z"/>
		<path class="st1" d="M54,88.6v-1.9c-0.2,0.3-0.4,0.5-0.6,0.8c-0.2,0.3-0.5,0.5-0.8,0.7c-0.3,0.2-0.6,0.3-1,0.4
			c-0.4,0.1-0.7,0.2-1.2,0.2c-0.6,0-1.1-0.1-1.6-0.3c-0.5-0.2-1-0.5-1.4-0.9c-0.4-0.4-0.8-0.9-1-1.5c-0.3-0.6-0.4-1.3-0.4-2
			c0-0.8,0.1-1.4,0.4-2c0.3-0.6,0.6-1.1,1-1.5c0.4-0.4,0.9-0.7,1.4-1c0.5-0.2,1.1-0.3,1.6-0.3c0.4,0,0.8,0.1,1.2,0.2
			c0.4,0.1,0.7,0.3,1,0.4c0.3,0.2,0.5,0.4,0.8,0.6c0.2,0.2,0.4,0.5,0.6,0.8v-5.6h1.4v13.1H54z M53.8,82.5c-0.2-0.4-0.4-0.8-0.8-1.1
			c-0.3-0.3-0.7-0.6-1.1-0.7c-0.4-0.2-0.8-0.3-1.2-0.3c-0.5,0-0.9,0.1-1.3,0.2c-0.4,0.2-0.7,0.4-1,0.7c-0.3,0.3-0.5,0.7-0.7,1.1
			c-0.2,0.4-0.3,0.9-0.3,1.5c0,0.5,0.1,1,0.3,1.5c0.2,0.4,0.4,0.8,0.7,1.1c0.3,0.3,0.6,0.6,1,0.7c0.4,0.2,0.8,0.2,1.3,0.2
			c0.4,0,0.8-0.1,1.2-0.3c0.4-0.2,0.8-0.4,1.1-0.7c0.3-0.3,0.6-0.7,0.8-1.1c0.2-0.4,0.3-0.9,0.3-1.5C54.1,83.4,54,83,53.8,82.5z"/>
		<path class="st1" d="M58.5,77.3v-1.5h1.6v1.5H58.5z M58.6,88.6v-9.3H60v9.3H58.6z"/>
		<path class="st1" d="M65.1,80.6c-0.4,0.1-0.9,0.3-1.3,0.5L63.4,80c0.5-0.2,1-0.4,1.6-0.6c0.5-0.1,1.1-0.2,1.8-0.2
			c1.3,0,2.2,0.3,2.9,0.9c0.7,0.6,1,1.6,1,2.8v5.7h-1.3v-1.4c-0.3,0.4-0.8,0.8-1.3,1.1c-0.5,0.3-1.2,0.5-2.1,0.5
			c-0.4,0-0.9-0.1-1.3-0.2c-0.4-0.1-0.8-0.3-1.1-0.5c-0.3-0.2-0.6-0.5-0.8-0.9c-0.2-0.4-0.3-0.8-0.3-1.3c0-0.5,0.1-0.9,0.3-1.3
			c0.2-0.4,0.5-0.7,0.8-0.9c0.4-0.3,0.8-0.4,1.3-0.6c0.5-0.1,1-0.2,1.6-0.2c0.6,0,1.1,0,1.6,0.1c0.4,0.1,0.9,0.2,1.3,0.3V83
			c0-0.8-0.2-1.5-0.7-1.9c-0.5-0.4-1.2-0.6-2-0.6C66,80.4,65.5,80.5,65.1,80.6z M64.7,84.4c-0.5,0.3-0.7,0.8-0.7,1.4
			c0,0.3,0.1,0.6,0.2,0.8c0.1,0.2,0.3,0.4,0.5,0.6c0.2,0.2,0.5,0.3,0.7,0.4c0.3,0.1,0.6,0.1,0.9,0.1c0.4,0,0.8-0.1,1.2-0.2
			c0.4-0.1,0.7-0.3,1-0.5c0.3-0.2,0.5-0.5,0.7-0.8s0.2-0.6,0.2-1v-0.9c-0.3-0.1-0.7-0.2-1.2-0.3c-0.4-0.1-1-0.1-1.5-0.1
			C65.8,83.9,65.1,84.1,64.7,84.4z"/>
	</g>
	<g>
		<rect x="74.1" y="82.9" class="st0" width="151.6" height="3.2"/>
	</g>
</g>
</svg>
