<?xml version="1.0" encoding="utf-8"?>
<!-- Generator: Adobe Illustrator 25.4.0, SVG Export Plug-In . SVG Version: 6.00 Build 0)  -->
<svg version="1.1"
	 id="svg5" inkscape:version="1.2 (1:1.2.1+202207142221+cd75a1ee6d)" sodipodi:docname="01.svg" xmlns:inkscape="http://www.inkscape.org/namespaces/inkscape" xmlns:sodipodi="http://sodipodi.sourceforge.net/DTD/sodipodi-0.dtd" xmlns:svg="http://www.w3.org/2000/svg"
	 xmlns="http://www.w3.org/2000/svg" xmlns:xlink="http://www.w3.org/1999/xlink" x="0px" y="0px" viewBox="0 0 100 100"
	 style="enable-background:new 0 0 100 100;" xml:space="preserve">
<style type="text/css">
	.st0{fill:#F7931E;}
	.st1{fill:#FFFFFF;}
</style>
<sodipodi:namedview  bordercolor="#000000" borderopacity="0.25" id="namedview7" inkscape:current-layer="layer1" inkscape:cx="33.752126" inkscape:cy="48.702732" inkscape:deskcolor="#d1d1d1" inkscape:document-units="px" inkscape:pagecheckerboard="0" inkscape:pageopacity="0.0" inkscape:showpageshadow="2" inkscape:window-height="1026" inkscape:window-maximized="1" inkscape:window-width="2560" inkscape:window-x="0" inkscape:window-y="26" inkscape:zoom="4.4145367" pagecolor="#ffffff" showgrid="false">
	</sodipodi:namedview>
<ellipse id="path235" class="st0" cx="50" cy="50" rx="50" ry="50"/>
<g>
	<path class="st1" d="M49.8,21c1.2,0.2,2.4,0.4,3.6,0.7c4.2,1.1,7.8,3.3,10.6,6.6c2.6,3,4.1,6.6,4.7,10.5c0.5,3.5,0,6.9-1.3,10.2
		c-1.4,3.6-3.7,6.6-6.9,8.8c-2.7,1.9-5.7,3.3-9,3.8C44.2,62.6,38,60.4,33,55c-3.5-3.8-5.2-8.5-5.1-13.7c0.1-6,2.4-11.1,6.8-15.2
		c3-2.7,6.6-4.4,10.6-4.9c0.6-0.1,1.2-0.2,1.7-0.2C47.9,21,48.8,21,49.8,21z M48.4,58.7c8.9,0,16.6-6.9,17.1-16.2
		c0.5-9.7-6.9-17.6-16.1-18.1c-9.8-0.6-18.1,7.3-18.1,17.1C31.2,50.4,38.5,58.7,48.4,58.7z"/>
	<path class="st1" d="M55,63.1c2.9-1.7,5.8-3.4,8.8-5.1c2.3,3.9,4.5,7.8,6.8,11.8c-2.9,1.7-5.8,3.4-8.8,5.1
		C59.5,70.9,57.3,67,55,63.1z"/>
	<path class="st1" d="M62.6,76.4c2.9-1.7,5.8-3.3,8.8-5c1.5,2.1,0.7,5.2-1.7,6.8C67.5,79.8,64.3,79,62.6,76.4z"/>
	<path class="st1" d="M48.3,42c-0.7,2.5-1.4,5.1-2.1,7.6c-0.1,0.3-0.2,0.4-0.5,0.4c-1,0-2,0-3,0c-0.3,0-0.4-0.1-0.5-0.4
		c-1.2-4.1-2.3-8.2-3.5-12.4c1.4,0,2.7,0,4.1,0c0.6,3,1.1,6.1,1.8,9.2c0.3-1.4,0.5-2.6,0.8-3.8c0.4-1.7,0.9-3.5,1.4-5.2
		c0-0.1,0.2-0.3,0.4-0.3c0.9,0,1.9,0,2.9,0c0.7,3.1,1.4,6.1,2.2,9.3c0.6-3.1,1.3-6.2,1.9-9.2c1.4,0,2.6,0,4,0
		c-0.2,0.6-0.4,1.2-0.5,1.8c-1.1,3.5-2.1,7-3.2,10.4c-0.1,0.4-0.3,0.6-0.8,0.6c-0.8,0-1.7,0-2.5,0c-0.5,0-0.7-0.1-0.9-0.6
		c-0.6-2.4-1.2-4.7-1.7-7.1C48.3,42.2,48.3,42.1,48.3,42C48.3,42,48.3,42,48.3,42z"/>
</g>
</svg>
