<?xml version="1.0" encoding="utf-8"?>
<!-- Generator: Adobe Illustrator 25.4.0, SVG Export Plug-In . SVG Version: 6.00 Build 0)  -->
<svg version="1.1"
	 id="svg5" inkscape:version="1.2 (1:1.2.1+202207142221+cd75a1ee6d)" sodipodi:docname="01.svg" xmlns:inkscape="http://www.inkscape.org/namespaces/inkscape" xmlns:sodipodi="http://sodipodi.sourceforge.net/DTD/sodipodi-0.dtd" xmlns:svg="http://www.w3.org/2000/svg"
	 xmlns="http://www.w3.org/2000/svg" xmlns:xlink="http://www.w3.org/1999/xlink" x="0px" y="0px" viewBox="0 0 100 100"
	 style="enable-background:new 0 0 100 100;" xml:space="preserve">
<style type="text/css">
	.st0{fill:#F7931E;}
	.st1{fill:#FFFFFF;}
</style>
<sodipodi:namedview  bordercolor="#000000" borderopacity="0.25" id="namedview7" inkscape:current-layer="layer1" inkscape:cx="33.752126" inkscape:cy="48.702732" inkscape:deskcolor="#d1d1d1" inkscape:document-units="px" inkscape:pagecheckerboard="0" inkscape:pageopacity="0.0" inkscape:showpageshadow="2" inkscape:window-height="1026" inkscape:window-maximized="1" inkscape:window-width="2560" inkscape:window-x="0" inkscape:window-y="26" inkscape:zoom="4.4145367" pagecolor="#ffffff" showgrid="false">
	</sodipodi:namedview>
<ellipse id="path235" class="st0" cx="50" cy="50" rx="50" ry="50"/>
<path class="st1" d="M78.7,47.7c-0.1-0.8-0.2-1.6-0.3-2.5c0-0.1-0.1-0.2-0.2-0.2c-9.1,0-18.3,0-27.4,0c-0.2,0-0.2,0-0.2,0.2
	c0,3.6,0,7.1,0,10.7c0,0.2,0,0.2,0.2,0.2c5.2,0,10.4,0,15.5,0c0.1,0,0.2,0,0.1,0.2c-0.7,3.1-2.2,5.7-4.7,7.8
	c-0.4,0.3-0.8,0.6-1.2,0.9c-0.1,0-0.1,0.1-0.2,0.1c-0.4,0.3-0.8,0.5-1.2,0.7c-2.1,1.1-4.3,1.7-6.6,1.9c-1.4,0.1-2.9,0.1-4.3-0.1
	c-1.7-0.2-3.3-0.7-4.8-1.4c-3.7-1.8-6.5-4.5-8.4-8.2c-0.4-0.8-0.7-1.6-1-2.4c0-0.1-0.1-0.2-0.1-0.3c-0.5-1.5-0.7-3-0.8-4.6
	c0-1.1,0-2.2,0.2-3.3c0.2-1.1,0.4-2.1,0.8-3.2c0.2-0.7,0.5-1.5,0.9-2.2c1.9-3.9,4.8-6.7,8.7-8.5c1.9-0.9,3.9-1.4,6-1.5
	c1.2-0.1,2.4,0,3.6,0.2c1.6,0.2,3.1,0.7,4.5,1.4c1.5,0.7,2.9,1.7,4.1,2.8c0.1,0.1,0.1,0.1,0.2,0c2.7-2.7,5.5-5.5,8.2-8.2
	c0.1-0.1,0.1-0.1,0-0.2c-3-2.8-6.5-4.9-10.4-6.2c-2.4-0.8-4.9-1.2-7.4-1.4c-0.2,0-0.3,0-0.5-0.1c-0.5,0-1.1,0-1.6,0
	c-0.8,0-1.7,0.1-2.5,0.1c-1.3,0.1-2.6,0.3-3.9,0.7c-2.7,0.7-5.3,1.7-7.8,3.1c-4.3,2.5-7.7,5.8-10.4,10c-0.5,0.8-1,1.6-1.4,2.4l0,0
	c0,0,0,0,0,0.1c-1.9,3.8-3,7.9-3.1,12.2c-0.1,1.8,0,3.6,0.3,5.3c0.3,1.9,0.8,3.7,1.4,5.5c0.4,1.1,0.9,2.2,1.4,3.3
	c0.8-0.6,1.6-1.3,2.4-1.9c-0.8,0.6-1.6,1.3-2.4,1.9c0,0,0,0,0,0.1c1.3,2.6,3,4.9,5,7c2.6,2.8,5.7,5,9.2,6.5c3.1,1.4,6.4,2.3,9.8,2.5
	c1.9,0.1,3.7,0.1,5.6-0.1c1.4-0.1,2.7-0.3,4-0.7c3.9-0.9,7.5-2.5,10.7-5c0.5-0.4,1-0.8,1.5-1.3c0,0,0.1,0,0.1-0.1
	c0.5-0.5,0.9-0.9,1.4-1.4c2.2-2.3,3.8-5,5-8c1-2.5,1.7-5.2,2-7.9c0.2-1.3,0.2-2.5,0.3-3.8c0-0.4,0-0.8,0-1.1
	C78.8,49.3,78.8,48.5,78.7,47.7z"/>
</svg>
