<?xml version="1.0" encoding="utf-8"?>
<!-- Generator: Adobe Illustrator 25.4.0, SVG Export Plug-In . SVG Version: 6.00 Build 0)  -->
<svg version="1.1"
	 id="svg5" inkscape:version="1.2 (1:1.2.1+202207142221+cd75a1ee6d)" sodipodi:docname="01.svg" xmlns:inkscape="http://www.inkscape.org/namespaces/inkscape" xmlns:sodipodi="http://sodipodi.sourceforge.net/DTD/sodipodi-0.dtd" xmlns:svg="http://www.w3.org/2000/svg"
	 xmlns="http://www.w3.org/2000/svg" xmlns:xlink="http://www.w3.org/1999/xlink" x="0px" y="0px" viewBox="0 0 100 100"
	 style="enable-background:new 0 0 100 100;" xml:space="preserve">
<style type="text/css">
	.st0{fill:#F7931E;}
	.st1{fill:#FFFFFF;}
</style>
<sodipodi:namedview  bordercolor="#000000" borderopacity="0.25" id="namedview7" inkscape:current-layer="layer1" inkscape:cx="33.752126" inkscape:cy="48.702732" inkscape:deskcolor="#d1d1d1" inkscape:document-units="px" inkscape:pagecheckerboard="0" inkscape:pageopacity="0.0" inkscape:showpageshadow="2" inkscape:window-height="1026" inkscape:window-maximized="1" inkscape:window-width="2560" inkscape:window-x="0" inkscape:window-y="26" inkscape:zoom="4.4145367" pagecolor="#ffffff" showgrid="false">
	</sodipodi:namedview>
<ellipse id="path235" class="st0" cx="50" cy="50" rx="50" ry="50"/>
<path class="st1" d="M50,48.5c-2.7,4.7-5.4,9.3-8.1,13.8c-1.5,2.6-3.3,5.2-5.6,7.2c-2.6,2.3-5.5,3.9-9.1,3.8c-4.1,0-7.2-1.9-9.2-5.4
	c-1.7-2.9-2.2-6.1-2.2-9.4c0-4.4,1-8.7,2.4-12.9c1.5-4.5,3.4-8.9,6.4-12.7c1-1.3,2.2-2.5,3.4-3.6c3.7-3.2,7.9-3.7,12.3-1.8
	c3.6,1.5,6.3,4,8.6,7c0.3,0.4,0.6,0.8,1,1.3c0.2-0.2,0.3-0.4,0.5-0.6c2.1-2.8,4.5-5.2,7.6-6.9c3-1.6,6.2-2.4,9.5-1.4
	c2.6,0.8,4.6,2.4,6.3,4.4c3.1,3.5,5.1,7.5,6.8,11.8c1.6,4.1,2.9,8.4,3.3,12.9c0.3,3.5,0.1,6.9-1.2,10.2c-2.6,6.5-9.4,9-15.6,5.8
	c-2.3-1.2-4.1-2.9-5.7-4.8c-2-2.4-3.5-5.1-5-7.8c-2-3.4-4-6.9-6.1-10.3C50.3,48.9,50.1,48.7,50,48.5z M22.4,58.3c0,0.6,0,1.2,0,1.8
	c0.1,1.5,0.4,3,1.1,4.4c0.9,1.7,2.3,2.5,4.2,2.4c1.8-0.1,3.1-1,4.4-2.2c1.5-1.4,2.7-3.1,3.7-4.8c3.4-5.8,6.8-11.6,10.3-17.4
	c0.2-0.3,0.2-0.6,0-0.9c-1.2-1.6-2.4-3.2-3.7-4.7c-1.3-1.5-2.9-2.7-4.8-3.4c-2-0.7-3.8-0.5-5.3,0.9c-1,0.9-1.9,1.9-2.7,3
	c-2.3,3.2-3.9,6.8-5.2,10.6C23.2,51.4,22.3,54.8,22.4,58.3z M77.9,58.5c-0.1,0-0.1,0-0.2,0c0-0.7,0-1.4-0.1-2.1
	c-0.9-6.8-3.2-13.2-7.1-18.9c-0.9-1.3-2-2.4-3.1-3.4c-1.1-1-2.5-1.3-4-0.8c-1,0.3-2,0.7-2.9,1.3c-2.7,1.7-4.7,4.2-6.4,6.9
	c-0.3,0.4-0.3,0.7,0,1.1c2.2,3.7,4.4,7.4,6.5,11.1c1.6,2.7,3.2,5.4,4.8,8c1,1.7,2.4,3.1,4,4.2c1,0.6,2,1,3.2,1.1
	c2.1,0,3.7-1.1,4.3-3.4C77.4,61.9,77.6,60.2,77.9,58.5z"/>
</svg>
