<?xml version="1.0" encoding="utf-8"?>
<!-- Generator: Adobe Illustrator 25.4.0, SVG Export Plug-In . SVG Version: 6.00 Build 0)  -->
<svg version="1.1"
	 id="svg5" inkscape:version="1.2 (1:1.2.1+202207142221+cd75a1ee6d)" sodipodi:docname="01.svg" xmlns:inkscape="http://www.inkscape.org/namespaces/inkscape" xmlns:sodipodi="http://sodipodi.sourceforge.net/DTD/sodipodi-0.dtd" xmlns:svg="http://www.w3.org/2000/svg"
	 xmlns="http://www.w3.org/2000/svg" xmlns:xlink="http://www.w3.org/1999/xlink" x="0px" y="0px" viewBox="0 0 100 100"
	 style="enable-background:new 0 0 100 100;" xml:space="preserve">
<style type="text/css">
	.st0{fill:#F7931E;}
	.st1{fill:#FFFFFF;}
</style>
<sodipodi:namedview  bordercolor="#000000" borderopacity="0.25" id="namedview7" inkscape:current-layer="layer1" inkscape:cx="33.752126" inkscape:cy="48.702732" inkscape:deskcolor="#d1d1d1" inkscape:document-units="px" inkscape:pagecheckerboard="0" inkscape:pageopacity="0.0" inkscape:showpageshadow="2" inkscape:window-height="1026" inkscape:window-maximized="1" inkscape:window-width="2560" inkscape:window-x="0" inkscape:window-y="26" inkscape:zoom="4.4145367" pagecolor="#ffffff" showgrid="false">
	</sodipodi:namedview>
<ellipse id="path235" class="st0" cx="50" cy="50" rx="50" ry="50"/>
<g>
	<path class="st1" d="M75.7,50.5c-1.4,2.7-2.9,5.5-4.3,8.2c-1.3,2.5-2.7,5.1-4,7.6c-1.7,3.2-4.1,5.5-7.6,6.5c-1.3,0.4-2.7,0.6-4,0.6
		c-4.8,0.1-9.6,0-14.3,0c-0.4,0-0.7,0.1-0.9,0.4c-2.1,2.1-4.1,4.1-6.2,6.2c-1.1,1.1-2,1.1-3.1,0c-2.8-2.8-5.7-5.6-8.5-8.5
		c-1.1-1.1-1.1-2,0-3.1c3.4-3.4,6.8-6.8,10.2-10.2c1.9-1.9,4.2-2.9,7-2.9c6.8,0,13.6,0,20.4,0c0.5,0,0.8-0.2,1.1-0.6
		c2.9-4.2,7-6.4,12.1-6.7c1.1-0.1,1.9,0.3,2.3,1.4C75.7,49.9,75.7,50.2,75.7,50.5z M32.7,76.4c0.1-0.1,0.3-0.3,0.5-0.4
		c1.8-1.8,3.5-3.5,5.3-5.3c0.6-0.6,1.2-0.8,2-0.8c5,0,10,0,14.9,0c4,0,6.9-1.7,8.8-5.3c2-3.9,4.1-7.8,6.1-11.7
		c0.1-0.2,0.2-0.3,0.3-0.6c-0.2,0-0.3,0.1-0.4,0.1c-2.7,0.9-4.8,2.6-6.3,5c-1.1,1.8-2,3.7-3,5.6c-1.1,2.2-2.9,3.2-5.3,3.2
		c-3.1,0-6.3,0-9.4,0c-0.8,0-1.7,0-2.5,0c-1.4,0-2.2-1.4-1.6-2.6c0.4-0.7,1-1,1.8-1c3.9,0,7.8,0,11.7,0c0.6,0,1.2,0,1.6-0.6
		c0.6-1,1.2-2,1.8-3.1c-0.4,0-0.6,0-0.8,0c-6,0-12.1,0-18.1,0c-1.9,0-3.5,0.6-4.8,2c-2.8,2.9-5.7,5.7-8.5,8.5
		c-0.2,0.2-0.3,0.3-0.4,0.4C28.5,72.1,30.6,74.3,32.7,76.4z"/>
	<path class="st1" d="M49.7,19.1c0.9,0.3,1.8,0.6,2.6,1.1c1.6,1,2.3,2.6,2.3,4.5c0,0.5,0,1.1,0,1.7c1.1,0,2.1,0,3,0
		c0.7,0,1.4,0,2.2,0c1.3,0,2,0.7,2,2c0,4.9,0,9.7,0,14.6c0,2.2,0,4.5,0,6.7c0,1.5-0.7,2.1-2.1,2.1c-7,0-14,0-21,0
		c-1.5,0-2.2-0.7-2.2-2.1c0-7,0-14.1,0-21.1c0-1.5,0.7-2.1,2.1-2.1c1.7,0,3.3,0,5,0c0-0.8,0.1-1.6,0.1-2.4c0.2-2.3,2.1-4.3,4.4-4.7
		c0.1,0,0.2-0.1,0.3-0.1C48.9,19.1,49.3,19.1,49.7,19.1z M58.1,48.2c0-6.1,0-12.1,0-18.1c-1.2,0-2.4,0-3.6,0c0,0.5,0,1,0,1.5
		c0,0.3,0,0.6-0.1,0.8c-0.2,0.8-1.1,1.4-1.9,1.3c-0.9-0.1-1.6-0.8-1.6-1.7c0-0.6,0-1.2,0-1.8c-1.3,0-2.4,0-3.6,0c0,0.6,0,1.2,0,1.8
		c0,0.8-0.4,1.3-1.1,1.6c-1.2,0.5-2.4-0.4-2.5-1.7c0-0.6,0-1.1,0-1.7c-1.3,0-2.4,0-3.6,0c0,6.1,0,12.1,0,18.1
		C46.1,48.2,52.1,48.2,58.1,48.2z M47.3,26.3c1.2,0,2.4,0,3.6,0c0-0.6,0-1.2,0-1.7c0-1-0.7-1.8-1.7-1.8c-1,0-1.8,0.7-1.9,1.7
		C47.2,25.1,47.3,25.7,47.3,26.3z"/>
</g>
</svg>
