<?xml version="1.0" encoding="utf-8"?>
<!-- Generator: Adobe Illustrator 25.4.0, SVG Export Plug-In . SVG Version: 6.00 Build 0)  -->
<svg version="1.1"
	 id="svg5" inkscape:version="1.2 (1:1.2.1+202207142221+cd75a1ee6d)" sodipodi:docname="01.svg" xmlns:inkscape="http://www.inkscape.org/namespaces/inkscape" xmlns:sodipodi="http://sodipodi.sourceforge.net/DTD/sodipodi-0.dtd" xmlns:svg="http://www.w3.org/2000/svg"
	 xmlns="http://www.w3.org/2000/svg" xmlns:xlink="http://www.w3.org/1999/xlink" x="0px" y="0px" viewBox="0 0 100 100"
	 style="enable-background:new 0 0 100 100;" xml:space="preserve">
<style type="text/css">
	.st0{fill:#F7931E;}
	.st1{fill:#FFFFFF;}
</style>
<sodipodi:namedview  bordercolor="#000000" borderopacity="0.25" id="namedview7" inkscape:current-layer="layer1" inkscape:cx="33.752126" inkscape:cy="48.702732" inkscape:deskcolor="#d1d1d1" inkscape:document-units="px" inkscape:pagecheckerboard="0" inkscape:pageopacity="0.0" inkscape:showpageshadow="2" inkscape:window-height="1026" inkscape:window-maximized="1" inkscape:window-width="2560" inkscape:window-x="0" inkscape:window-y="26" inkscape:zoom="4.4145367" pagecolor="#ffffff" showgrid="false">
	</sodipodi:namedview>
<ellipse id="path235" class="st0" cx="50" cy="50" rx="50" ry="50"/>
<path class="st1" d="M38.2,78.3c1.9,0.8,4.8,1.5,8.7,2.2h5.5c7.4,0,14.7-3.9,21.7-11.6c4.4-6.5,6.5-12.2,6.5-17.1l-0.4-0.7l0.4-0.7
	l-0.4-0.7c0-0.2,0.1-0.4,0.4-0.4c0-8.9-4.2-16.9-12.7-23.9c-6.1-3.9-11.6-5.8-16.4-5.8h-3.2c-8.8,0-16.8,4.6-24,13.8
	C21,39.2,19.3,44.8,19.3,50C19.3,62.4,25.6,71.8,38.2,78.3z M45.1,77.9c-6.9-1.6-11.9-4.4-15.2-8.3c2.6-1.9,4.9-2.9,6.9-2.9
	c2.3,3.5,5,7,8.3,10.5V77.9z M48.7,75.8l-0.4,0.7c-5.2-4.4-8.1-7.9-8.8-10.5c0.3-0.5,2.7-1,7.3-1.4h0.7c0.4,0,0.7,0.4,1.1,1.1V75.8z
	 M48.7,61.3c0,0.8-3.5,1.5-10.5,2.1c-1.7-3.7-2.6-7.3-2.6-10.8c0.1-0.5,0.3-0.8,0.7-0.8H48c0.5,0.1,0.8,0.3,0.8,0.8V61.3z
	 M48.7,48.6c0,0.3-0.4,0.7-1.1,1.1H36.4c-0.2,0-0.5-0.4-1.1-1.1c1.1-7.5,2.2-11.3,3.3-11.3c6.4,0.8,9.7,1.4,10.2,1.8V48.6z
	 M69.8,69.9c-3.1,3.7-8.1,6.4-14.9,8v-0.7c2.2-2.1,5.1-5.7,8.8-10.9c4.1,1.5,6.1,2.6,6.1,3.3V69.9z M71.6,67.4
	c-4.8-2.1-7.3-3.5-7.3-4V63c1.1-2.3,2.1-6.1,2.9-11.3h10.2c0.5,0.1,0.7,0.3,0.7,0.8C78.1,57.8,75.9,62.8,71.6,67.4z M71.6,33.3h0.7
	c3.9,4.7,5.8,9.7,5.8,14.8v0.4c0,0.3-0.4,0.7-1.1,1.1H68c-0.8,0-1.4-2.7-1.8-8c-1-1.8-1.4-3.5-1.4-5.1C68.1,35.1,70.4,34,71.6,33.3z
	 M54.9,22.4c4,0.2,8.6,2.4,13.8,6.5l1.8,2.2c-2.9,1.9-5.4,2.9-7.3,2.9c-1.9-3.6-4.8-7.4-8.7-11.3C54.8,22.8,54.9,22.7,54.9,22.4z
	 M50.9,24.2c0.1-0.5,0.3-0.7,0.7-0.7c4.5,4,7.6,7.7,9.1,10.9c0,0.8-2.4,1.4-7.3,1.8h-1.8c-0.5,0-0.7-0.2-0.7-0.7V24.2z M50.9,39.5
	c0-0.8,3.6-1.5,10.9-2.1c1.9,4,2.9,7.8,2.9,11.3c0,0.3-0.4,0.7-1.1,1.1H52c-0.4,0-0.7-0.4-1.1-1.1V39.5z M50.9,52.6
	c0.1-0.5,0.3-0.8,0.7-0.8H64c0.5,0.1,0.7,0.3,0.7,0.8c-0.9,6.4-2.1,10-3.6,10.8c-6.2-0.8-9.6-1.3-10.2-1.8V52.6z M50.9,65.2
	c0.1-0.5,0.3-0.7,0.7-0.7h1.1c5.1,0.3,7.6,0.9,7.6,1.8c-1.6,3.4-4.5,6.9-8.8,10.5c-0.5,0-0.7-0.2-0.7-0.7V65.2z M48.4,23.5l0.4,0.7
	v10.9c0,0.4-0.4,0.7-1.1,1.1h-1.1c-4.6-0.4-6.9-0.9-6.9-1.4C39.6,32.6,42.6,28.9,48.4,23.5z M29.9,30.4c6.1-5.3,11.2-8,15.2-8
	l0.4,0.7c-1.3,0.5-4.4,4.1-9.1,10.9H36c-3.7-1-5.7-2-6.1-2.9V30.4z M27.7,33.3h0.7c1.5,1,3.9,2.1,6.9,3.2v1.8
	c-1.1,2.6-1.9,6.2-2.5,10.9L32,49.6H23c-0.6,0-1-0.5-1.1-1.5C21.9,43.2,23.8,38.3,27.7,33.3z M22.6,56.2c-0.2-0.4-0.5-1.6-0.7-3.6
	l1.1-0.8h9.4c0.4,0,1.2,3.3,2.6,9.8c0.5,0,0.7,0.9,0.7,2.6c-3.2,1.2-5.6,2.3-7.3,3.2C26.8,67.4,24.8,63.7,22.6,56.2z"/>
</svg>
