<?xml version="1.0" encoding="utf-8"?>
<!-- Generator: Adobe Illustrator 25.4.0, SVG Export Plug-In . SVG Version: 6.00 Build 0)  -->
<svg version="1.1"
	 id="svg5" inkscape:version="1.2 (1:1.2.1+202207142221+cd75a1ee6d)" sodipodi:docname="01.svg" xmlns:inkscape="http://www.inkscape.org/namespaces/inkscape" xmlns:sodipodi="http://sodipodi.sourceforge.net/DTD/sodipodi-0.dtd" xmlns:svg="http://www.w3.org/2000/svg"
	 xmlns="http://www.w3.org/2000/svg" xmlns:xlink="http://www.w3.org/1999/xlink" x="0px" y="0px" viewBox="0 0 100 100"
	 style="enable-background:new 0 0 100 100;" xml:space="preserve">
<style type="text/css">
	.st0{fill:#F7931E;}
	.st1{fill:#FFFFFF;}
</style>
<sodipodi:namedview  bordercolor="#000000" borderopacity="0.25" id="namedview7" inkscape:current-layer="layer1" inkscape:cx="33.752126" inkscape:cy="48.702732" inkscape:deskcolor="#d1d1d1" inkscape:document-units="px" inkscape:pagecheckerboard="0" inkscape:pageopacity="0.0" inkscape:showpageshadow="2" inkscape:window-height="1026" inkscape:window-maximized="1" inkscape:window-width="2560" inkscape:window-x="0" inkscape:window-y="26" inkscape:zoom="4.4145367" pagecolor="#ffffff" showgrid="false">
	</sodipodi:namedview>
<ellipse id="path235" class="st0" cx="50" cy="50" rx="50" ry="50"/>
<path class="st1" d="M24.1,60.8c0.2-1.1,0.2-2.3,0.5-3.4C26,50.3,32,44.5,39.1,43.3c1.8-0.3,3.6-0.4,5.4-0.2c0.2,0,0.5,0.1,0.7,0.1
	c0,3.2,0,6.4,0,9.7c-0.5-0.1-1-0.2-1.4-0.3c-5.5-0.8-10.2,3.5-10,9c0.1,4.4,3.7,8,8.1,8.3c4.3,0.3,8.4-2.8,9.1-7
	c0.1-0.7,0.2-1.5,0.2-2.2c0-13.1,0-26.2,0-39.3c0-0.3,0-0.5,0-0.8c3.2,0,6.4,0,9.5,0c0.2,1.3,0.4,2.6,0.7,3.8
	c1.7,6.3,7.3,10.7,13.7,10.9c0.5,0,0.7,0.2,0.7,0.7c0,2.7,0,5.5,0,8.2c0,0.2,0,0.4,0,0.7c-2.7,0-5.3-0.4-7.9-1.3
	c-2.5-0.8-4.8-2.1-7.1-3.8c0,0.3,0,0.5,0,0.7c0,6.8,0,13.6,0.1,20.4c0,3.7-0.9,7.2-3,10.2c-3.4,5-8.2,7.8-14.2,8.3
	c-0.2,0-0.4,0.1-0.6,0.1c-0.4,0-0.8,0-1.2,0c-1-0.1-1.9-0.2-2.9-0.4c-7-1.2-13-6.8-14.6-13.7c-0.3-1.3-0.4-2.6-0.6-3.9
	C24.1,61.3,24.1,61.1,24.1,60.8z"/>
</svg>
