<?xml version="1.0" encoding="utf-8"?>
<!-- Generator: Adobe Illustrator 25.4.0, SVG Export Plug-In . SVG Version: 6.00 Build 0)  -->
<svg version="1.1"
	 id="svg5" inkscape:version="1.2 (1:1.2.1+202207142221+cd75a1ee6d)" sodipodi:docname="01.svg" xmlns:inkscape="http://www.inkscape.org/namespaces/inkscape" xmlns:sodipodi="http://sodipodi.sourceforge.net/DTD/sodipodi-0.dtd" xmlns:svg="http://www.w3.org/2000/svg"
	 xmlns="http://www.w3.org/2000/svg" xmlns:xlink="http://www.w3.org/1999/xlink" x="0px" y="0px" viewBox="0 0 100 100"
	 style="enable-background:new 0 0 100 100;" xml:space="preserve">
<style type="text/css">
	.st0{fill:#FFFFFF;}
</style>
<sodipodi:namedview  bordercolor="#000000" borderopacity="0.25" id="namedview7" inkscape:current-layer="layer1" inkscape:cx="33.752126" inkscape:cy="48.702732" inkscape:deskcolor="#d1d1d1" inkscape:document-units="px" inkscape:pagecheckerboard="0" inkscape:pageopacity="0.0" inkscape:showpageshadow="2" inkscape:window-height="1026" inkscape:window-maximized="1" inkscape:window-width="2560" inkscape:window-x="0" inkscape:window-y="26" inkscape:zoom="4.4145367" pagecolor="#ffffff" showgrid="false">
	</sodipodi:namedview>
<ellipse id="path235" cx="50" cy="50" rx="50" ry="50"/>
<g>
	<path class="st0" d="M53.6,60.4c0-7,2.5-10.6,7.6-10.6c2.9,0,5,1.5,6.1,4.5c0.3,2,0.5,4.3,0.5,6.9v19.1h12.5V59.7
		c0-9.9-1.8-15.9-5.5-18c-2.3-1.8-5.4-2.8-9.4-2.8c-5,0-9,2.1-12.1,6.2h-0.2v-5.4h-12v40.6h12.5V60.4z"/>
	<rect x="20.7" y="39.8" class="st0" width="12.5" height="40.6"/>
	<path class="st0" d="M26.8,34.2h0.5c3.6,0,5.9-2.1,6.9-6.4v-1c0-3.2-1.8-5.4-5.4-6.8l-1.7-0.3c-3.6,0-6,2-7.3,6.1l-0.2,1.2
		C20.4,31.8,22.8,34.2,26.8,34.2z"/>
</g>
</svg>
