<?xml version="1.0" encoding="utf-8"?>
<!-- Generator: Adobe Illustrator 25.4.0, SVG Export Plug-In . SVG Version: 6.00 Build 0)  -->
<svg version="1.1"
	 id="svg5" inkscape:version="1.2 (1:1.2.1+202207142221+cd75a1ee6d)" sodipodi:docname="01.svg" xmlns:inkscape="http://www.inkscape.org/namespaces/inkscape" xmlns:sodipodi="http://sodipodi.sourceforge.net/DTD/sodipodi-0.dtd" xmlns:svg="http://www.w3.org/2000/svg"
	 xmlns="http://www.w3.org/2000/svg" xmlns:xlink="http://www.w3.org/1999/xlink" x="0px" y="0px" viewBox="0 0 100 100"
	 style="enable-background:new 0 0 100 100;" xml:space="preserve">
<style type="text/css">
	.st0{fill:#FFFFFF;}
</style>
<sodipodi:namedview  bordercolor="#000000" borderopacity="0.25" id="namedview7" inkscape:current-layer="layer1" inkscape:cx="33.752126" inkscape:cy="48.702732" inkscape:deskcolor="#d1d1d1" inkscape:document-units="px" inkscape:pagecheckerboard="0" inkscape:pageopacity="0.0" inkscape:showpageshadow="2" inkscape:window-height="1026" inkscape:window-maximized="1" inkscape:window-width="2560" inkscape:window-x="0" inkscape:window-y="26" inkscape:zoom="4.4145367" pagecolor="#ffffff" showgrid="false">
	</sodipodi:namedview>
<ellipse id="path235" cx="50" cy="50" rx="50" ry="50"/>
<g>
	<path class="st0" d="M66.1,30.2c-2.4,0.6-3.6,1.8-3.6,3.6c0,2.1,1.3,3.3,3.8,3.6c2.3-0.5,3.5-1.6,3.5-3.5
		C69.4,31.5,68.2,30.2,66.1,30.2z"/>
	<path class="st0" d="M55.9,35.6c-1.4-0.6-3.3-1-5.7-1.2c-6.5,0-11.3,3.2-14.6,9.7c-0.6,1.5-1,3.5-1.2,5.9c0,5.5,2.6,10.1,7.8,13.5
		c2.6,1.4,5.2,2.1,7.8,2.1c6.6,0,11.5-3.4,14.6-10.1c0.7-2,1-3.8,1-5.4C65.6,43.6,62.4,38.7,55.9,35.6z M53.1,59.5
		c-1.2,0.3-2.3,0.5-3.3,0.5c-4.5,0-7.7-2.5-9.5-7.6L39.9,50c0-4.5,2.5-7.7,7.5-9.7l2.6-0.3c4.1,0,7.2,2.1,9.4,6.4
		c0.5,1.4,0.7,2.7,0.7,3.8C60.1,54.4,57.7,57.6,53.1,59.5z"/>
	<path class="st0" d="M76.5,26.4c-1.4-2.5-4.4-4.5-9-5.9c-2.4-0.6-7.8-0.9-16.3-0.9h-2.6c-12.1,0-18.8,0.9-20.3,2.6
		c-2.9,1.3-5.3,4-7.1,8c-1,2.1-1.6,8.2-1.6,18.4v2.6c0,12.3,0.9,19.2,2.6,20.5c1.2,3,4,5.4,8.3,7.3c2.5,0.9,7.1,1.4,13.9,1.4h11.6
		c9.1,0,14.7-1.1,16.8-3.3c2.7-1.4,4.9-4.3,6.4-8.8c0.7-2.4,1-6.4,1-12.1V44.5C80.3,34.7,79.1,28.6,76.5,26.4z M74.8,54.7
		c0,8.6-0.6,13.3-1.7,14.2c-1,1.9-2.6,3.5-5,4.7c-1.1,0.8-5.6,1.2-13.3,1.2h-9.4c-8.9,0-13.7-0.6-14.4-1.9c-1.9-0.8-3.5-2.7-4.9-5.9
		c-0.5,0-0.8-5.1-0.9-15.3v-3.5c0-11,0.5-16.5,1.6-16.5c0.8-2.1,2.4-3.8,4.9-5c1.4-1,5.4-1.6,12-1.6h8.1c11,0,16.5,0.5,16.5,1.6
		c1.2,0,2.9,1.5,5,4.5c1,1.2,1.6,5.8,1.6,14V54.7z"/>
</g>
</svg>
