<?xml version="1.0" encoding="utf-8"?>
<!-- Generator: Adobe Illustrator 25.4.0, SVG Export Plug-In . SVG Version: 6.00 Build 0)  -->
<svg version="1.1"
	 id="svg5" inkscape:version="1.2 (1:1.2.1+202207142221+cd75a1ee6d)" sodipodi:docname="01.svg" xmlns:inkscape="http://www.inkscape.org/namespaces/inkscape" xmlns:sodipodi="http://sodipodi.sourceforge.net/DTD/sodipodi-0.dtd" xmlns:svg="http://www.w3.org/2000/svg"
	 xmlns="http://www.w3.org/2000/svg" xmlns:xlink="http://www.w3.org/1999/xlink" x="0px" y="0px" viewBox="0 0 100 100"
	 style="enable-background:new 0 0 100 100;" xml:space="preserve">
<style type="text/css">
	.st0{fill:#F7931E;}
	.st1{fill:#FFFFFF;}
</style>
<sodipodi:namedview  bordercolor="#000000" borderopacity="0.25" id="namedview7" inkscape:current-layer="layer1" inkscape:cx="33.752126" inkscape:cy="48.702732" inkscape:deskcolor="#d1d1d1" inkscape:document-units="px" inkscape:pagecheckerboard="0" inkscape:pageopacity="0.0" inkscape:showpageshadow="2" inkscape:window-height="1026" inkscape:window-maximized="1" inkscape:window-width="2560" inkscape:window-x="0" inkscape:window-y="26" inkscape:zoom="4.4145367" pagecolor="#ffffff" showgrid="false">
	</sodipodi:namedview>
<ellipse id="path235" class="st0" cx="50" cy="50" rx="50" ry="50"/>
<path class="st1" d="M48.4,22.5c1.1,0,2.2,0,3.3,0c0.3,0,0.6,0.1,0.9,0.1c1.4,0,2,0.7,1.9,2c0,0.1,0,0.3,0,0.4
	c0.2,3.2,2.8,5.6,6,5.6c1.7,0,3.2-0.6,4.5-1.9c0.7-0.7,1.5-0.8,2.3-0.2c1.6,1.3,3,2.7,4.2,4.3c0.5,0.7,0.5,1.4-0.1,2.1
	c-0.2,0.2-0.3,0.4-0.5,0.6c-2.3,2.5-1.9,6.6,0.7,8.7c1.1,0.9,2.4,1.3,3.8,1.4c1.3,0.1,1.9,0.6,1.9,1.9c0,1.8,0,3.5,0,5.3
	c-0.1,1.2-0.6,1.7-1.9,1.7c-3.8,0-6.6,3.2-6.1,6.9c0.2,1.4,0.9,2.6,1.9,3.7c0.7,0.7,0.7,1.5,0.2,2.2c-1.3,1.6-2.8,3.1-4.4,4.3
	c-0.6,0.5-1.4,0.4-2-0.1c-0.2-0.2-0.4-0.4-0.6-0.5c-1.7-1.4-3.6-1.8-5.7-1.3c-2.6,0.7-4.2,2.9-4.4,5.6c-0.1,1.6-0.5,2.1-2.1,2.1
	c-1.6,0-3.1,0-4.7,0c-1.5,0-2.3-0.5-2.2-2.2c0-0.1,0-0.1,0-0.2c-0.2-3.2-2.8-5.7-6-5.6c-1.8,0-3.3,0.7-4.5,1.9
	c-0.7,0.7-1.5,0.7-2.2,0.2c-1.6-1.3-3-2.7-4.3-4.3c-0.5-0.6-0.5-1.4,0.1-2c0.2-0.2,0.4-0.4,0.5-0.6c2.3-2.5,1.9-6.6-0.7-8.7
	c-1.1-0.9-2.3-1.3-3.6-1.4c-1.5-0.1-2-0.6-2.1-2.1c0-0.2-0.1-0.5-0.1-0.7c0-1.1,0-2.2,0-3.3c0.1-0.5,0.1-1,0.2-1.4
	c0.1-0.9,0.6-1.3,1.5-1.4c0.3,0,0.6,0,1-0.1c3.4-0.4,5.9-3.1,5.5-6.6c-0.1-1.5-0.8-2.8-1.9-3.9c-0.7-0.7-0.7-1.5-0.2-2.2
	c1.3-1.6,2.8-3.1,4.4-4.3c0.6-0.5,1.4-0.4,2,0.1c0.2,0.2,0.4,0.3,0.6,0.5c2.3,2.1,6.1,2,8.3-0.2c1.3-1.2,1.8-2.8,1.9-4.5
	c0-1.1,0.6-1.6,1.6-1.7C47.7,22.6,48.1,22.6,48.4,22.5z M58.6,63.4c-0.1-0.1-0.3-0.3-0.4-0.4c-2-2-4.1-4.1-6.1-6.1
	c-0.3-0.3-0.6-0.4-1.1-0.2c-2.4,0.8-4.7,0.8-7-0.2c-4.3-1.9-6.6-6.4-5.7-11.1c0.1-0.5,0.2-1,0.8-1.2c0.6-0.2,1,0.2,1.4,0.6
	c1.3,1.3,2.7,2.6,4,4c0.3,0.3,0.7,0.5,1.2,0.4c0.9-0.2,1.8-0.3,2.8-0.4c0.4,0,0.5-0.2,0.6-0.6c0.1-0.9,0.3-1.9,0.4-2.8
	c0.1-0.5-0.1-0.8-0.4-1.1c-1.4-1.4-2.8-2.8-4.2-4.2c-0.7-0.7-0.4-1.7,0.5-1.9c0.9-0.2,1.7-0.3,2.6-0.3c6.8,0.1,11.3,6.7,9,13.1
	c-0.1,0.4-0.1,0.6,0.2,0.8c2.1,2,4.1,4.1,6.2,6.2c0.1,0.1,0.3,0.2,0.4,0.4c3.5-5.5,3.3-14.5-3.2-20.1c-6.1-5.3-15.5-5.2-21.5,0.7
	c-5.8,5.7-6.2,15.3-1,21.5C43.5,66.8,52.6,67.4,58.6,63.4z"/>
</svg>
